<svg xmlns="http://www.w3.org/2000/svg" xmlns:xlink="http://www.w3.org/1999/xlink" width="526" zoomAndPan="magnify" viewBox="0 0 394.5 74.999997" height="100" preserveAspectRatio="xMidYMid meet" version="1.0"><defs><g/><clipPath id="0f9905a3bd"><path d="M 1 1 L 102 1 L 102 74.953125 L 1 74.953125 Z M 1 1 " clip-rule="nonzero"/></clipPath><clipPath id="1d4801c7ee"><path d="M 2 0.046875 L 103 0.046875 L 103 70 L 2 70 Z M 2 0.046875 " clip-rule="nonzero"/></clipPath><clipPath id="64e23b2d48"><path d="M 304 0.046875 L 394 0.046875 L 394 71 L 304 71 Z M 304 0.046875 " clip-rule="nonzero"/></clipPath><clipPath id="4ca3c13e6c"><path d="M 304 1 L 394 1 L 394 74.953125 L 304 74.953125 Z M 304 1 " clip-rule="nonzero"/></clipPath></defs><g fill="#ffffff" fill-opacity="1"><g transform="translate(72.184946, 53.70038)"><g><path d="M 32.390625 -37.078125 C 36.390625 -33.492188 38.390625 -27.78125 38.390625 -19.9375 C 38.390625 -13.34375 36.617188 -8.179688 33.078125 -4.453125 C 30.296875 -1.484375 26.007812 0 20.21875 0 L 4.109375 0 L 4.109375 -40.90625 L 20.046875 -40.90625 C 22.941406 -40.90625 25.34375 -40.609375 27.25 -40.015625 C 29.15625 -39.421875 30.867188 -38.441406 32.390625 -37.078125 Z M 29.875 -20.390625 C 29.875 -24.316406 29.40625 -27.257812 28.46875 -29.21875 C 27.539062 -31.175781 26.203125 -32.457031 24.453125 -33.0625 C 22.703125 -33.675781 20.300781 -33.984375 17.25 -33.984375 L 12.34375 -33.984375 L 12.34375 -6.90625 L 19.1875 -6.90625 C 21.738281 -6.90625 23.765625 -7.238281 25.265625 -7.90625 C 26.773438 -8.570312 27.921875 -9.875 28.703125 -11.8125 C 29.484375 -13.757812 29.875 -16.617188 29.875 -20.390625 Z M 29.875 -20.390625 "/></g></g></g><g fill="#ffffff" fill-opacity="1"><g transform="translate(110.002278, 53.70038)"><g><path d="M 15.421875 -30.28125 C 20.140625 -30.28125 23.660156 -28.742188 25.984375 -25.671875 C 28.304688 -22.609375 29.46875 -18.238281 29.46875 -12.5625 L 9.828125 -12.5625 C 9.898438 -10.582031 10.476562 -8.878906 11.5625 -7.453125 C 12.65625 -6.023438 14.226562 -5.3125 16.28125 -5.3125 C 17.570312 -5.3125 18.625 -5.644531 19.4375 -6.3125 C 20.257812 -6.976562 20.863281 -8.015625 21.25 -9.421875 L 29.078125 -8.109375 C 28.085938 -5.210938 26.488281 -3.019531 24.28125 -1.53125 C 22.070312 -0.0507812 19.367188 0.6875 16.171875 0.6875 C 11.410156 0.6875 7.8125 -0.738281 5.375 -3.59375 C 4.226562 -4.925781 3.347656 -6.601562 2.734375 -8.625 C 2.128906 -10.644531 1.828125 -12.644531 1.828125 -14.625 C 1.828125 -17.332031 2.3125 -19.875 3.28125 -22.25 C 4.25 -24.632812 5.753906 -26.566406 7.796875 -28.046875 C 9.835938 -29.535156 12.378906 -30.28125 15.421875 -30.28125 Z M 10 -17.359375 L 21.703125 -17.359375 C 21.671875 -19.765625 21.070312 -21.519531 19.90625 -22.625 C 18.75 -23.726562 17.390625 -24.28125 15.828125 -24.28125 C 13.992188 -24.28125 12.5625 -23.625 11.53125 -22.3125 C 10.507812 -21 10 -19.347656 10 -17.359375 Z M 10 -17.359375 "/></g></g></g><g fill="#ffffff" fill-opacity="1"><g transform="translate(138.336557, 53.70038)"><g><path d="M 14.046875 -14.6875 L 15.140625 -11.203125 C 15.367188 -10.359375 15.539062 -9.785156 15.65625 -9.484375 L 15.765625 -9.484375 C 16.335938 -11.617188 16.867188 -13.296875 17.359375 -14.515625 L 23.015625 -29.59375 L 31.078125 -29.59375 L 19.3125 0 L 12.21875 0 L 0.28125 -29.59375 L 8.515625 -29.59375 Z M 14.046875 -14.6875 "/></g></g></g><g fill="#ffffff" fill-opacity="1"><g transform="translate(166.67084, 53.70038)"><g/></g></g><g fill="#ffffff" fill-opacity="1"><g transform="translate(179.123875, 53.70038)"><g><path d="M 32.390625 -37.078125 C 36.390625 -33.492188 38.390625 -27.78125 38.390625 -19.9375 C 38.390625 -13.34375 36.617188 -8.179688 33.078125 -4.453125 C 30.296875 -1.484375 26.007812 0 20.21875 0 L 4.109375 0 L 4.109375 -40.90625 L 20.046875 -40.90625 C 22.941406 -40.90625 25.34375 -40.609375 27.25 -40.015625 C 29.15625 -39.421875 30.867188 -38.441406 32.390625 -37.078125 Z M 29.875 -20.390625 C 29.875 -24.316406 29.40625 -27.257812 28.46875 -29.21875 C 27.539062 -31.175781 26.203125 -32.457031 24.453125 -33.0625 C 22.703125 -33.675781 20.300781 -33.984375 17.25 -33.984375 L 12.34375 -33.984375 L 12.34375 -6.90625 L 19.1875 -6.90625 C 21.738281 -6.90625 23.765625 -7.238281 25.265625 -7.90625 C 26.773438 -8.570312 27.921875 -9.875 28.703125 -11.8125 C 29.484375 -13.757812 29.875 -16.617188 29.875 -20.390625 Z M 29.875 -20.390625 "/></g></g></g><g fill="#ffffff" fill-opacity="1"><g transform="translate(216.941203, 53.70038)"><g><path d="M 17.53125 -30.28125 C 20.726562 -30.28125 23.488281 -29.554688 25.8125 -28.109375 C 28.144531 -26.660156 29.898438 -24.753906 31.078125 -22.390625 C 32.253906 -20.023438 32.84375 -17.53125 32.84375 -14.90625 C 32.84375 -12.164062 32.222656 -9.601562 30.984375 -7.21875 C 29.753906 -4.84375 27.984375 -2.929688 25.671875 -1.484375 C 23.367188 -0.0351562 20.675781 0.6875 17.59375 0.6875 C 14.96875 0.6875 12.492188 0.144531 10.171875 -0.9375 C 7.847656 -2.03125 5.953125 -3.765625 4.484375 -6.140625 C 3.015625 -8.523438 2.28125 -11.539062 2.28125 -15.1875 C 2.28125 -17.738281 2.859375 -20.164062 4.015625 -22.46875 C 5.179688 -24.78125 6.914062 -26.660156 9.21875 -28.109375 C 11.53125 -29.554688 14.300781 -30.28125 17.53125 -30.28125 Z M 10.34375 -14.796875 C 10.34375 -11.828125 11.035156 -9.570312 12.421875 -8.03125 C 13.816406 -6.488281 15.519531 -5.71875 17.53125 -5.71875 C 19.550781 -5.71875 21.265625 -6.476562 22.671875 -8 C 24.085938 -9.519531 24.796875 -11.804688 24.796875 -14.859375 C 24.796875 -17.671875 24.117188 -19.875 22.765625 -21.46875 C 21.410156 -23.070312 19.648438 -23.875 17.484375 -23.875 C 15.503906 -23.875 13.816406 -23.09375 12.421875 -21.53125 C 11.035156 -19.96875 10.34375 -17.722656 10.34375 -14.796875 Z M 10.34375 -14.796875 "/></g></g></g><g fill="#ffffff" fill-opacity="1"><g transform="translate(248.417456, 53.70038)"><g><path d="M 5.9375 -25.828125 C 8.488281 -28.796875 12.109375 -30.28125 16.796875 -30.28125 C 23.835938 -30.28125 28.234375 -27.132812 29.984375 -20.84375 L 22.28125 -19.484375 C 21.632812 -22.597656 19.84375 -24.15625 16.90625 -24.15625 C 14.925781 -24.15625 13.351562 -23.46875 12.1875 -22.09375 C 11.03125 -20.726562 10.453125 -18.503906 10.453125 -15.421875 C 10.453125 -12.410156 10.945312 -10.039062 11.9375 -8.3125 C 12.925781 -6.582031 14.617188 -5.71875 17.015625 -5.71875 C 18.578125 -5.71875 19.828125 -6.179688 20.765625 -7.109375 C 21.703125 -8.046875 22.335938 -9.46875 22.671875 -11.375 L 30.390625 -10.046875 C 28.785156 -2.890625 24.195312 0.6875 16.625 0.6875 C 12.125 0.6875 8.660156 -0.679688 6.234375 -3.421875 C 4.972656 -4.835938 4.019531 -6.550781 3.375 -8.5625 C 2.726562 -10.582031 2.40625 -12.660156 2.40625 -14.796875 C 2.40625 -17.003906 2.707031 -19.0625 3.3125 -20.96875 C 3.925781 -22.875 4.800781 -24.492188 5.9375 -25.828125 Z M 5.9375 -25.828125 "/></g></g></g><g fill="#ffffff" fill-opacity="1"><g transform="translate(276.751744, 53.70038)"><g><path d="M 14.90625 -30.28125 C 18.601562 -30.28125 21.507812 -29.671875 23.625 -28.453125 C 25.738281 -27.234375 27.191406 -25.234375 27.984375 -22.453125 L 20.5625 -21.078125 C 20.21875 -22.296875 19.597656 -23.195312 18.703125 -23.78125 C 17.804688 -24.375 16.5625 -24.671875 14.96875 -24.671875 C 11.425781 -24.671875 9.65625 -23.851562 9.65625 -22.21875 C 9.65625 -21.414062 10.234375 -20.773438 11.390625 -20.296875 C 12.554688 -19.828125 14.242188 -19.34375 16.453125 -18.84375 C 19.160156 -18.238281 21.367188 -17.617188 23.078125 -16.984375 C 24.796875 -16.359375 26.207031 -15.425781 27.3125 -14.1875 C 28.414062 -12.957031 28.96875 -11.3125 28.96875 -9.25 C 28.96875 -7.570312 28.5 -5.984375 27.5625 -4.484375 C 26.625 -2.984375 25.144531 -1.742188 23.125 -0.765625 C 21.113281 0.203125 18.566406 0.6875 15.484375 0.6875 C 12.015625 0.6875 8.957031 -0.0507812 6.3125 -1.53125 C 3.664062 -3.019531 2 -5.328125 1.3125 -8.453125 L 9.140625 -9.65625 C 9.859375 -6.488281 11.972656 -4.90625 15.484375 -4.90625 C 16.847656 -4.90625 18.128906 -5.144531 19.328125 -5.625 C 20.535156 -6.101562 21.140625 -6.953125 21.140625 -8.171875 C 21.140625 -8.972656 20.863281 -9.535156 20.3125 -9.859375 C 19.757812 -10.179688 18.875 -10.472656 17.65625 -10.734375 C 14.03125 -11.535156 11.207031 -12.28125 9.1875 -12.96875 C 7.175781 -13.65625 5.539062 -14.644531 4.28125 -15.9375 C 3.03125 -17.226562 2.40625 -18.976562 2.40625 -21.1875 C 2.40625 -24.28125 3.582031 -26.566406 5.9375 -28.046875 C 8.300781 -29.535156 11.289062 -30.28125 14.90625 -30.28125 Z M 14.90625 -30.28125 "/></g></g></g><g fill="#ffffff" fill-opacity="1"><g transform="translate(305.086033, 53.70038)"><g/></g></g><g fill="#ffffff" fill-opacity="1"><g transform="translate(317.539068, 53.70038)"><g><path d="M 5.71875 1.375 L -0.0625 1.375 L 9.9375 -40.90625 L 15.828125 -40.90625 Z M 5.71875 1.375 "/></g></g></g><g clip-path="url(#0f9905a3bd)"><path stroke-linecap="butt" transform="matrix(0.410617, 0.410617, -0.410617, 0.410617, 36.433982, 31.904281)" fill="none" stroke-linejoin="miter" d="M 0.00192514 4.997263 L 84.435691 5.00202 " stroke="#ffffff" stroke-width="10" stroke-opacity="1" stroke-miterlimit="4"/></g><g clip-path="url(#1d4801c7ee)"><path stroke-linecap="butt" transform="matrix(-0.410617, 0.410617, -0.410617, -0.410617, 71.522468, 5.023917)" fill="none" stroke-linejoin="miter" d="M 0.00299105 4.998552 L 82.462783 4.998552 " stroke="#ffffff" stroke-width="10" stroke-opacity="1" stroke-miterlimit="4"/></g><g clip-path="url(#64e23b2d48)"><path stroke-linecap="butt" transform="matrix(-0.412485, -0.412485, 0.412485, -0.412485, 370.620027, 39.862208)" fill="none" stroke-linejoin="miter" d="M -0.00259426 5.000181 L 84.432396 5.000181 " stroke="#ffffff" stroke-width="10" stroke-opacity="1" stroke-miterlimit="4"/></g><g clip-path="url(#4ca3c13e6c)"><path stroke-linecap="butt" transform="matrix(0.412485, -0.412485, 0.412485, 0.412485, 335.371927, 66.864843)" fill="none" stroke-linejoin="miter" d="M 0.000883039 4.997284 L 82.461368 5.002019 " stroke="#ffffff" stroke-width="10" stroke-opacity="1" stroke-miterlimit="4"/></g></svg>